<?xml version="1.0" encoding="utf-8"?>
<!-- Generator: Adobe Illustrator 23.0.6, SVG Export Plug-In . SVG Version: 6.00 Build 0)  -->
<svg version="1.1" id="Layer_1" xmlns="http://www.w3.org/2000/svg" xmlns:xlink="http://www.w3.org/1999/xlink" x="0px" y="0px"
	 viewBox="0 0 300.8 38.2" style="enable-background:new 0 0 300.8 38.2;" xml:space="preserve">
<style type="text/css">
	.st0{fill:#FFFFFF;}
	.st1{enable-background:new    ;}
	.st2{fill:#1D1D1B;}
</style>
<rect class="st0" width="300" height="38.2"/>
<g class="st1">
	<path class="st2" d="M29.8,33.6h-3.6v3.6H8.1v-3.6H4.4V30H0.8V8.2h3.6V4.6h3.6V1h18.1v3.6h3.6V33.6z M8.1,26.4V8.2H4.4v18.1H8.1z
		 M22.6,8.2V4.6H8.1v3.6H22.6z M18.9,30v-3.6H8.1V30H18.9z M22.6,26.4V15.5h-7.3v3.6h3.6v7.3H22.6z"/>
	<path class="st2" d="M58.8,37.2H37.1v-3.6h-3.6V30h-3.6v-7.3h3.6v-3.6h3.6v-3.6h-3.6v-3.6h3.6V8.2h18.1v3.6h3.6V37.2z M37.1,26.4
		v-3.6h-3.6v3.6H37.1z M47.9,15.5v-3.6H37.1v3.6H47.9z M51.6,30V15.5h-3.6v3.6H37.1v3.6h10.9v3.6H37.1V30H51.6z"/>
	<path class="st2" d="M95.1,37.2H84.2v-3.6h-3.6v3.6h-7.3v-3.6h-3.6v3.6h-7.3v-3.6h-3.6V11.9h3.6V8.2h25.4v3.6h3.6v3.6h3.6V37.2z
		 M73.3,15.5v-3.6H62.4V30h3.6V15.5H73.3z M76.9,30V15.5h-3.6V30H76.9z M84.2,15.5v-3.6h-7.3v3.6H84.2z M87.8,30V15.5h-3.6V30H87.8z
		"/>
	<path class="st2" d="M124.1,37.2h-21.8v-3.6h-3.6V30H95V15.5h3.6v-3.6h3.6V8.2h14.5v3.6h3.6v3.6h3.6V37.2z M116.8,22.7v-7.3h-3.6
		v3.6h-10.9v-3.6h-3.6v10.9h3.6v-3.6H116.8z M113.2,15.5v-3.6h-10.9v3.6H113.2z M116.8,30v-3.6h-14.5V30H116.8z"/>
	<path class="st2" d="M167.6,30h-3.6v3.6h-3.6v3.6h-14.5v-3.6h-3.6V30h-3.6V15.5h3.6v-3.6h3.6V8.2h14.5v3.6h3.6v3.6h3.6V30z
		 M145.8,26.4V15.5h-3.6v10.9H145.8z M156.7,15.5v-3.6h-10.9v3.6H156.7z M156.7,30v-3.6h-10.9V30H156.7z M160.3,26.4V15.5h-3.6v10.9
		H160.3z"/>
	<path class="st2" d="M192.9,22.7h-3.6h-3.6v14.5h-10.9v-3.6h-3.6V19.1h-3.6v-7.3h3.6V8.2h3.6V4.6h3.6V1h10.9v3.6h3.6v14.5V22.7z
		 M185.7,15.5v-3.6h-7.3V8.2h-3.6v3.6h-3.6v3.6h3.6V30h3.6V15.5H185.7z M185.7,8.2V4.6h-7.3v3.6H185.7z"/>
	<path class="st2" d="M232.8,37.2h-21.8v-3.6h-3.6v-29h3.6V1h7.3v3.6h3.6v18.1h7.3v3.6h3.6V37.2z M225.6,30v-3.6h-10.9V4.6h-3.6V30
		H225.6z"/>
	<path class="st2" d="M247.3,37.2h-10.9v-3.6h-3.6v-29h3.6V1h7.3v3.6h3.6V37.2z M240.1,8.2V4.6h-3.6v3.6H240.1z M240.1,30V11.9h-3.6
		V30H240.1z"/>
	<path class="st2" d="M272.7,22.7h-3.6h-3.6v14.5h-10.9v-3.6h-3.6V19.1h-3.6v-7.3h3.6V8.2h3.6V4.6h3.6V1h10.9v3.6h3.6v14.5V22.7z
		 M265.4,15.5v-3.6h-7.3V8.2h-3.6v3.6h-3.6v3.6h3.6V30h3.6V15.5H265.4z M265.4,8.2V4.6h-7.3v3.6H265.4z"/>
	<path class="st2" d="M298.1,37.2h-21.8v-3.6h-3.6V30H269V15.5h3.6v-3.6h3.6V8.2h14.5v3.6h3.6v3.6h3.6V37.2z M290.8,22.7v-7.3h-3.6
		v3.6h-10.9v-3.6h-3.6v10.9h3.6v-3.6H290.8z M287.2,15.5v-3.6h-10.9v3.6H287.2z M290.8,30v-3.6h-14.5V30H290.8z"/>
</g>
</svg>
