<svg id="Layer_1" data-name="Layer 1" xmlns="http://www.w3.org/2000/svg" viewBox="0 0 1000 1000"><title>gol_logo_dark</title><rect width="1000" height="1000" rx="69.04"/><path d="M700.47,537c32,0,64,.07,96-.09,4.35,0,5.88,1,5.81,5.65-.26,18.51,0,37-.19,55.54,0,4,1.08,5.3,5.18,5.26,19.33-.19,38.66,0,58-.17,4,0,5.27,1.18,5.23,5.23-.18,19.32,0,38.65-.17,58,0,4.09,1.26,5.22,5.26,5.18,18.52-.18,37,0,55.55-.16,4,0,5.68.75,5.66,5.29q-.27,62.13,0,124.25c0,4.13-1.33,5.2-5.29,5.16q-29-.25-58,0c-4.13,0-5.2-1.34-5.16-5.3.18-18.51,0-37,.16-55.54,0-4.08-.81-5.64-5.32-5.63q-61.63.27-123.27,0c-3.7,0-5.08.88-5.06,4.87q.21,61.39,0,122.79c0,3.8,1,5,4.94,5,19.16-.18,38.33,0,57.49-.16,3.87,0,5,1.14,5,5q-.25,29.24,0,58.46c0,3.88-1.15,5-5,5q-62.85-.18-125.7,0c-3.86,0-5-1.12-5-5,.17-18.83,0-37.67.16-56.51,0-3.91-1.21-5-5-4.94-19.33.17-38.65-.05-58,.18-4.4.05-5.45-1.36-5.41-5.56.21-18.84.09-37.68.09-56.52,0-6.24,0-6.24-6.46-6.25-18,0-36.06-.12-54.08.09-4.31.05-5.85-.95-5.84-5.62q.24-95.73,0-191.48c0-4.87,1.56-5.91,6.1-5.85,18.19.23,36.38,0,54.57.18,4.33,0,5.89-1,5.82-5.62-.27-18.35,0-36.71-.2-55.06-.06-4.4,1.09-5.81,5.67-5.79C636.16,537.11,668.32,537,700.47,537ZM666.71,671.45c0,20.47.07,40.93-.09,61.39,0,3.75.93,5.08,4.9,5q28.25-.28,56.51,0c3.86,0,5-1.13,5-5q-.25-28.26,0-56.51c0-4-1.31-4.93-5-4.9-20.46.16-40.92.09-61.38.1,0-20.62,0-41.24.12-61.85,0-3.34-1-4.54-4.41-4.52q-28.74.21-57.47,0c-3.4,0-4.49,1.06-4.47,4.47q.2,28.72,0,57.47c0,3.46,1.17,4.44,4.51,4.42C625.48,671.44,646.1,671.47,666.71,671.45Zm102-66.16c-9.9,0-19.79.09-29.69-.06-3.19-.05-4.2,1.09-4.19,4.23q.17,29,0,57.92c0,3.19,1.09,4.21,4.23,4.19q29.45-.15,58.9,0c3.19,0,4.2-1.08,4.18-4.23q-.15-29,0-57.92c0-3.19-1.08-4.23-4.23-4.19C788.21,605.38,778.48,605.29,768.74,605.29ZM600.41,772.92c0,9.57.12,19.15-.06,28.71-.07,3.43,1.1,4.47,4.48,4.45q28.71-.18,57.43,0c3.42,0,4.47-1.1,4.45-4.47q-.19-28.73,0-57.44c0-3.41-1.1-4.47-4.48-4.44q-28.71.18-57.43,0c-3.42,0-4.51,1.1-4.45,4.48C600.53,753.77,600.41,763.35,600.41,772.92Z" style="fill:#fff"/><path d="M802.24,402.48c0,21-.16,41.91,0,62.86,0,4.22-1,5.54-5.42,5.53q-96.48-.19-193,0c-4.21,0-5.59-1-5.54-5.43.23-19.32,0-38.65.18-58,0-3.84-1.09-5-5-5-18.84.18-37.69,0-56.53.17-3.91,0-4.94-1.22-4.94-5q.15-95.5,0-191c0-3.91,1.2-5,5-5,18.68.17,37.36-.06,56,.18,4.41,0,5.45-1.37,5.4-5.56-.21-18.68-.09-37.36-.09-56,0-6.73,0-6.73,7-6.73,18.51,0,37-.12,55.54.09,4.34.05,5.89-1,5.83-5.63-.27-18.51,0-37-.19-55.55,0-4,1.08-5.28,5.18-5.27q62.61.21,125.23,0c4,0,5.31,1.08,5.27,5.18q-.29,29,0,58c0,4-1.1,5.3-5.19,5.26-19-.19-38,0-57-.17-4.07,0-5.22,1.21-5.21,5.24q.2,61.15,0,122.31c0,4.15,1.37,5.14,5.3,5.13q61.39-.19,122.8,0c4.76,0,5.6-1.66,5.55-5.89-.19-18.51,0-37-.15-55.55,0-3.77,1-5.07,4.92-5q29.24.28,58.48,0c3.78,0,5,1,5,4.94q-.19,62.37,0,124.74c0,3.79-1,5.06-4.94,5-18.84-.19-37.68,0-56.52-.16-3.87,0-5,1.14-5,5,.18,18.68,0,37.36.18,56,0,4.38-1.31,5.47-5.54,5.44-21-.18-41.9,0-62.85,0,0-20.46-.06-40.93.1-61.39,0-3.74-1-5.08-4.91-5q-28.74.29-57.49,0c-3.85,0-5,1.12-5,5q.27,28.26,0,56.52c0,4,1.31,4.92,5,4.89C760.66,402.43,781.45,402.49,802.24,402.48ZM633,268c9.74,0,19.47-.12,29.21.06,3.39.06,4.49-1.05,4.47-4.45q-.19-28.73,0-57.44c0-3.38-1.05-4.49-4.46-4.47q-28.71.19-57.43,0c-3.39,0-4.49,1-4.47,4.46q.2,28.71,0,57.43c0,3.39,1,4.54,4.46,4.47C614.21,267.89,623.62,268,633,268Zm33.62,101.3c0-9.41-.13-18.83.06-28.23.07-3.45-.74-4.91-4.56-4.88q-28.71.26-57.43,0c-3.51,0-4.38,1.28-4.36,4.56q.17,28.71,0,57.43c0,3.52,1.27,4.39,4.55,4.37q28.73-.18,57.43,0c3.52,0,4.43-1.28,4.37-4.56C666.54,388.45,666.65,378.88,666.65,369.31Zm33.18-35c9.57,0,19.14-.13,28.71.06,3.43.07,4.47-1.12,4.44-4.49q-.19-27.74,0-55.48c0-3.43-1.12-4.46-4.49-4.44q-28.71.19-57.43,0c-3.43,0-4.47,1.11-4.44,4.48q.2,27.75,0,55.49c0,3.42,1.11,4.5,4.48,4.44C680.68,334.17,690.25,334.29,699.83,334.29Z" style="fill:#fff"/><path d="M397.75,806c0,21-.16,41.91,0,62.86,0,4.22-1,5.59-5.43,5.54-18.67-.24-37.36,0-56-.18-3.84,0-5,1.1-5,5,.18,18.84,0,37.68.17,56.52,0,3.91-1.23,4.95-5,4.94q-62.87-.18-125.72,0c-3.92,0-5-1.22-4.94-5q.24-29.24,0-58.48c0-3.93,1.26-4.95,5-4.92,19,.16,38,0,57,.14,3.84,0,5.39-.8,5.38-5.06q-.23-61.39,0-122.79c0-3.53-.9-4.82-4.63-4.8q-62.13.16-124.26,0c-3.61,0-4.76,1.06-4.73,4.7.15,18.84,0,37.69.15,56.53.05,4.08-1.25,5.23-5.25,5.19q-29-.27-58,0c-4.1,0-5.2-1.28-5.18-5.27q.18-62.13,0-124.26c0-4.1,1.28-5.22,5.27-5.18,18.52.18,37-.08,55.55.19,4.64.07,5.68-1.48,5.63-5.82-.21-18.68-.09-37.36-.09-56,0-6.47,0-6.47,6.73-6.47,18.68,0,37.36-.12,56,.08,4.19,0,5.61-1,5.56-5.39-.24-18.68,0-37.36-.18-56,0-3.8,1-5,4.95-5q96,.16,192,0c3.79,0,5.05,1,5,4.94-.18,18.83,0,37.68-.16,56.52,0,3.87,1.15,5,5,5,19.33-.17,38.66,0,58-.14,3.79,0,5.43.7,5.42,5q-.18,96.48,0,193c0,3.94-1.26,4.95-5,4.93-21.12-.14-42.23,0-63.35,0,0-20.46-.06-40.93.1-61.39,0-3.74-.94-5.08-4.9-5q-28.26.28-56.51,0c-3.86,0-5,1.12-5,5q.27,28.26,0,56.52c0,4,1.3,4.92,5,4.89C356.83,805.93,377.29,806,397.75,806ZM229.45,671.52c9.74,0,19.47-.11,29.2.06,3.3,0,4.58-.88,4.55-4.38q-.21-28.71,0-57.43c0-3.3-.87-4.58-4.37-4.55q-29.2.21-58.41,0c-3.29,0-4.57.87-4.55,4.37q.21,28.73,0,57.44c0,3.83,1.46,4.61,4.89,4.54C210.3,671.4,219.88,671.52,229.45,671.52Zm135.23-66.24c-9.57,0-19.15.1-28.72,0-3.19-.05-4.65.7-4.62,4.3q.21,29,0,57.92c0,3.26,1.22,4.13,4.3,4.12q29-.15,57.92,0c3.26,0,4.13-1.22,4.12-4.29q-.15-29,0-57.92c0-3.27-1.22-4.17-4.29-4.13C383.83,605.37,374.25,605.29,364.68,605.28Zm-99.55,99.37c0,9.57.11,19.14-.06,28.71-.06,3.36,1,4.52,4.43,4.5q27.74-.21,55.48,0c3.36,0,4.52-1,4.5-4.43q-.21-28.73,0-57.44c0-3.35-1-4.52-4.43-4.49q-27.74.19-55.48,0c-3.35,0-4.56,1-4.5,4.43C265.25,685.5,265.13,695.07,265.13,704.65Z" style="fill:#fff"/><path d="M397.75,402.48c0,20.93-.15,41.86,0,62.79,0,4.1-.86,5.62-5.33,5.61q-95.64-.22-191.29,0c-4.46,0-5.37-1.5-5.34-5.61.16-20.92,0-41.85,0-62.78,20.79,0,41.58-.06,62.36.1,3.75,0,5.08-.94,5-4.91q-.29-28.24,0-56.51c0-3.86-1.13-5-5-5q-28.74.26-57.49,0c-4,0-4.92,1.31-4.89,5.05.16,20.46.09,40.92.1,61.38-21,0-41.9-.15-62.84,0-4.2,0-5.62-1-5.56-5.4.24-18.68,0-37.35.17-56,0-3.77-1-5.06-4.92-5-18.83.19-37.67,0-56.51.16-3.82,0-5-1.07-5-5q.18-62.36,0-124.71c0-3.77,1-5.08,4.92-5q29.24.28,58.46,0c4.31,0,5.06,1.62,5,5.42-.16,18.67,0,37.35-.15,56,0,3.8,1,5,4.94,5q61.86-.19,123.73,0c3.85,0,5-1.12,5-5q-.18-61.38,0-122.76c0-3.91-1.21-5-5-4.94-19,.17-38,0-57,.15-3.8,0-5.47-.72-5.43-5q.33-29.22,0-58.46c0-3.94,1.27-4.93,5-4.92q62.83.16,125.68,0c3.88,0,5,1.16,5,5-.17,18.83,0,37.67-.16,56.51,0,3.92,1.24,5,5,4.92,18.67-.16,37.35.07,56-.17,4.4-.06,5.45,1.36,5.41,5.55-.17,20.95,0,41.9,0,62.84-20.47,0-40.93.06-61.39-.1-3.75,0-5.08.94-5,4.91q.29,28.24,0,56.51c0,3.86,1.13,5,5,5q28.26-.27,56.51,0c4,0,4.93-1.31,4.9-5.05-.16-20.46-.09-40.92-.1-61.39,20.93,0,41.86.15,62.79,0,4.1,0,5.61.86,5.6,5.34q-.21,95.14,0,190.31c0,4.46-1.49,5.37-5.6,5.34-20.93-.16-41.86,0-62.79,0,0-20.46-.06-40.93.1-61.39,0-3.74-.94-5.08-4.9-5q-28.26.29-56.51,0c-3.86,0-5,1.12-5,5q.26,28.26,0,56.52c0,4,1.31,4.92,5,4.9C356.83,402.42,377.29,402.49,397.75,402.48ZM265.13,302.16c0,9.25.12,18.5-.07,27.74-.06,3.42,1.11,4.47,4.48,4.45q27.75-.19,55.49,0c3.41,0,4.47-1.1,4.44-4.48q-.18-27.74,0-55.48c0-3.42-1.11-4.47-4.48-4.45q-27.75.19-55.49,0c-3.41,0-4.51,1.1-4.44,4.48C265.25,283.66,265.13,292.91,265.13,302.16Z" style="fill:#fff"/></svg>